<?xml version="1.0" standalone="no"?>
<!DOCTYPE svg PUBLIC "-//W3C//DTD SVG 1.1//EN" "http://www.w3.org/Graphics/SVG/1.1/DTD/svg11.dtd">
<svg width="240mm" height="190mm" viewBox="2 -148 240 190" xmlns="http://www.w3.org/2000/svg" version="1.1">
<title>OpenSCAD Model</title>
<path d="
M 223.6,41.6 L 223.6,37.7378 L 223.6,37.7143 L 223.602,37.6241 L 223.603,37.5771 L 223.608,37.4802
 L 223.611,37.4342 L 223.619,37.3358 L 223.624,37.2903 L 223.635,37.1948 L 223.641,37.1465 L 223.655,37.0527
 L 223.663,37.006 L 223.68,36.9079 L 223.689,36.8626 L 223.709,36.77 L 223.72,36.7236 L 223.744,36.6275
 L 223.757,36.5821 L 223.783,36.4903 L 223.796,36.4455 L 223.826,36.3548 L 223.841,36.3099 L 223.874,36.2176
 L 223.89,36.1746 L 223.926,36.0844 L 223.943,36.0414 L 223.984,35.9484 L 224.002,35.907 L 224.044,35.8199
 L 224.064,35.7785 L 224.109,35.691 L 224.131,35.6499 L 224.178,35.566 L 224.201,35.5251 L 224.251,35.4421
 L 224.275,35.4027 L 224.329,35.3198 L 224.355,35.2815 L 224.411,35.1997 L 224.437,35.1632 L 224.496,35.0846
 L 224.524,35.0477 L 224.584,34.9716 L 224.613,34.9362 L 224.677,34.8616 L 224.707,34.8271 L 224.773,34.7546
 L 224.804,34.7207 L 224.873,34.6502 L 224.905,34.618 L 224.975,34.5498 L 225.009,34.518 L 225.082,34.4523
 L 225.116,34.4221 L 225.191,34.3588 L 225.226,34.3298 L 225.302,34.2693 L 225.339,34.241 L 225.418,34.1827
 L 225.454,34.1565 L 225.536,34.0999 L 225.574,34.0743 L 225.657,34.0208 L 225.697,33.9964 L 225.78,33.9466
 L 225.821,33.923 L 225.905,33.8764 L 225.946,33.8544 L 226.033,33.8094 L 226.075,33.789 L 226.162,33.7478
 L 226.203,33.729 L 226.296,33.6886 L 226.339,33.6709 L 226.429,33.6353 L 226.472,33.6191 L 226.565,33.5861
 L 226.609,33.5709 L 226.706,33.5399 L 226.761,33.5234 L 226.884,33.4893 L 226.917,33.4806 L 226.932,33.477
 L 227.045,33.4447 L 227.157,33.4087 L 227.268,33.3688 L 227.377,33.3257 L 227.485,33.2789 L 227.593,33.2281
 L 227.696,33.1749 L 227.8,33.1171 L 227.9,33.0572 L 228.001,32.9925 L 228.096,32.9265 L 228.192,32.8557
 L 228.283,32.7827 L 228.373,32.7066 L 228.461,32.6268 L 228.545,32.5453 L 228.627,32.4615 L 228.707,32.3731
 L 228.783,32.2834 L 228.856,32.1915 L 228.927,32.096 L 228.993,32.0006 L 229.057,31.9003 L 229.117,31.8004
 L 229.174,31.6972 L 229.232,31.5853 L 240.891,7.33563 L 240.899,7.31956 L 240.935,7.24605 L 240.965,7.18407
 L 240.995,7.12088 L 241.029,7.04851 L 241.055,6.99242 L 241.09,6.91815 L 241.119,6.85431 L 241.146,6.79478
 L 241.178,6.72208 L 241.209,6.65173 L 241.236,6.59079 L 241.263,6.52745 L 241.293,6.45509 L 241.319,6.39429
 L 241.344,6.33434 L 241.374,6.2612 L 241.397,6.20125 L 241.422,6.13795 L 241.446,6.07603 L 241.47,6.01151
 L 241.49,5.95706 L 241.514,5.89117 L 241.534,5.83386 L 241.554,5.77518 L 241.575,5.7115 L 241.594,5.6546
 L 241.612,5.59518 L 241.628,5.54324 L 241.645,5.48337 L 241.661,5.42616 L 241.676,5.37148 L 241.692,5.3118
 L 241.705,5.25902 L 241.719,5.1992 L 241.731,5.1474 L 241.743,5.09129 L 241.754,5.03671 L 241.764,4.98402
 L 241.774,4.92703 L 241.783,4.87299 L 241.791,4.81837 L 241.799,4.76436 L 241.806,4.70915 L 241.813,4.65369
 L 241.818,4.60234 L 241.824,4.54826 L 241.828,4.49352 L 241.832,4.43829 L 241.835,4.38637 L 241.837,4.33347
 L 241.839,4.27866 L 241.84,4.22311 L 241.841,4.17233 L 241.84,4.11667 L 241.839,4.06239 L 241.838,4.0067
 L 241.836,3.95613 L 241.833,3.90157 L 241.829,3.84592 L 241.825,3.78926 L 241.82,3.73633 L 241.814,3.68153
 L 241.808,3.62422 L 241.801,3.57152 L 241.793,3.51321 L 241.784,3.45905 L 241.775,3.40356 L 241.765,3.3468
 L 241.755,3.29488 L 241.744,3.23624 L 241.732,3.18019 L 241.72,3.12563 L 241.706,3.06648 L 241.691,3.0085
 L 241.677,2.95384 L 241.66,2.89331 L 241.645,2.83783 L 241.628,2.78064 L 241.61,2.72308 L 241.592,2.6655
 L 241.573,2.60725 L 241.552,2.5463 L 241.533,2.49345 L 241.531,2.48759 L 241.51,2.43129 L 241.488,2.37209
 L 241.465,2.31317 L 241.442,2.25435 L 241.418,2.19475 L 241.394,2.13972 L 241.367,2.07593 L 241.342,2.01894
 L 241.314,1.95802 L 241.287,1.89864 L 241.283,1.89128 L 241.279,1.92673 L 241.272,1.97858 L 241.262,2.05434
 L 241.253,2.12164 L 241.244,2.18973 L 241.234,2.25435 L 241.224,2.32295 L 241.215,2.37967 L 241.203,2.45535
 L 241.192,2.52026 L 241.183,2.57481 L 241.17,2.65329 L 241.158,2.71956 L 241.146,2.78673 L 241.134,2.85207
 L 241.122,2.91385 L 241.107,2.98758 L 241.095,3.04893 L 241.082,3.11261 L 241.068,3.1813 L 241.054,3.24525
 L 241.04,3.31122 L 241.027,3.36815 L 241.01,3.44275 L 240.994,3.51425 L 240.979,3.57545 L 240.964,3.63803
 L 240.948,3.70227 L 240.932,3.76878 L 240.915,3.83623 L 240.898,3.9006 L 240.881,3.96603 L 240.864,4.02869
 L 240.846,4.09206 L 240.827,4.16064 L 240.812,4.21463 L 240.79,4.29016 L 240.771,4.35577 L 240.754,4.41475
 L 240.736,4.47211 L 240.712,4.55035 L 240.694,4.60921 L 240.674,4.67197 L 240.656,4.72771 L 240.632,4.80162
 L 240.612,4.8633 L 240.592,4.92169 L 240.57,4.98764 L 240.546,5.05617 L 240.527,5.11096 L 240.501,5.18446
 L 240.479,5.24492 L 240.455,5.31137 L 240.435,5.36693 L 240.409,5.43608 L 240.384,5.49997 L 240.36,5.56436
 L 240.336,5.62425 L 240.314,5.681 L 240.287,5.74771 L 240.262,5.81064 L 240.24,5.86438 L 240.209,5.93721
 L 240.186,5.99345 L 240.162,6.04916 L 240.132,6.11981 L 240.108,6.17435 L 240.078,6.24208 L 240.05,6.30434
 L 240.021,6.36906 L 239.995,6.42694 L 239.966,6.48915 L 239.938,6.5482 L 239.909,6.61064 L 239.883,6.66391
 L 239.851,6.73126 L 239.826,6.78233 L 239.792,6.85104 L 239.761,6.91273 L 239.731,6.97197 L 239.702,7.02911
 L 239.669,7.09305 L 239.64,7.14879 L 239.607,7.21187 L 239.575,7.27231 L 239.545,7.32826 L 239.514,7.38533
 L 239.483,7.44016 L 239.448,7.50453 L 239.415,7.56268 L 239.381,7.62315 L 239.347,7.68161 L 239.313,7.74185
 L 239.282,7.79416 L 239.246,7.8557 L 239.211,7.91466 L 239.178,7.96938 L 239.143,8.02681 L 239.106,8.086
 L 239.072,8.14116 L 239.036,8.19823 L 238.999,8.25671 L 238.97,8.3036 L 238.925,8.37206 L 238.892,8.42299
 L 238.861,8.47029 L 238.817,8.53775 L 238.781,8.59167 L 238.741,8.64998 L 238.702,8.70715 L 238.672,8.75124
 L 238.628,8.81433 L 238.59,8.8685 L 238.548,8.92783 L 238.512,8.97818 L 238.471,9.0347 L 238.432,9.08813
 L 238.391,9.14447 L 238.353,9.1962 L 238.313,9.24895 L 238.274,9.30113 L 238.236,9.3506 L 238.191,9.40887
 L 238.146,9.46692 L 238.111,9.51189 L 238.064,9.57208 L 238.025,9.62137 L 237.987,9.66772 L 237.94,9.72598
 L 237.897,9.77882 L 237.855,9.82936 L 237.818,9.87419 L 237.768,9.93329 L 237.724,9.9857 L 237.681,10.036
 L 237.636,10.0872 L 237.598,10.1311 L 237.55,10.1858 L 237.504,10.2376 L 237.457,10.2905 L 237.416,10.336
 L 237.369,10.3878 L 237.33,10.4298 L 237.277,10.4879 L 237.233,10.5352 L 237.186,10.585 L 237.146,10.627
 L 237.092,10.6829 L 237.048,10.7289 L 236.999,10.7792 L 236.953,10.8258 L 236.905,10.8734 L 236.864,10.9152
 L 236.809,10.9696 L 236.764,11.0135 L 236.719,11.0576 L 236.663,11.1114 L 236.617,11.1557 L 236.569,11.201
 L 236.518,11.2489 L 236.47,11.2935 L 236.421,11.3387 L 236.371,11.3841 L 236.321,11.4299 L 236.272,11.4734
 L 236.219,11.5213 L 236.174,11.5611 L 236.12,11.6084 L 236.067,11.6543 L 236.02,11.6942 L 235.966,11.7404
 L 235.916,11.7827 L 235.865,11.8255 L 235.813,11.8688 L 235.761,11.9118 L 235.708,11.9545 L 235.657,11.996
 L 235.604,12.0382 L 235.551,12.0804 L 235.499,12.1216 L 235.445,12.1633 L 235.393,12.2034 L 235.339,12.2448
 L 235.285,12.2858 L 235.232,12.3257 L 235.178,12.3662 L 235.122,12.4076 L 235.071,12.4449 L 235.015,12.4853
 L 234.959,12.5259 L 234.906,12.5638 L 234.852,12.6019 L 234.797,12.64 L 234.75,12.6729 L 234.687,12.7158
 L 234.637,12.7498 L 234.574,12.7926 L 234.529,12.8222 L 234.464,12.8654 L 234.415,12.8978 L 234.35,12.9397
 L 234.301,12.9711 L 234.239,13.0107 L 234.177,13.0499 L 234.13,13.0792 L 234.067,13.118 L 234.009,13.1534
 L 233.947,13.1909 L 233.893,13.2236 L 233.834,13.2583 L 233.779,13.291 L 233.721,13.3247 L 233.659,13.3604
 L 233.604,13.3915 L 233.543,13.4263 L 233.486,13.4581 L 233.425,13.4919 L 233.379,13.5169 L 233.307,13.556
 L 233.25,13.5866 L 233.192,13.6176 L 233.13,13.65 L 233.07,13.6811 L 233.011,13.7115 L 232.951,13.7418
 L 232.891,13.7724 L 232.832,13.8017 L 232.771,13.8315 L 232.71,13.8614 L 232.65,13.8902 L 232.59,13.9189
 L 232.528,13.9482 L 232.475,13.9725 L 232.41,14.0026 L 232.343,14.033 L 232.283,14.0601 L 232.233,14.0823
 L 232.162,14.1136 L 232.1,14.1402 L 232.038,14.1668 L 231.976,14.1931 L 231.914,14.2191 L 231.862,14.2408
 L 231.789,14.2705 L 231.727,14.2957 L 231.667,14.3194 L 231.601,14.3453 L 231.54,14.3691 L 231.478,14.3929
 L 231.414,14.4168 L 231.353,14.4396 L 231.286,14.4644 L 231.226,14.4859 L 231.162,14.5092 L 231.106,14.529
 L 231.035,14.5536 L 230.969,14.5762 L 230.92,14.5929 L 230.842,14.619 L 230.79,14.6361 L 230.715,14.6605
 L 230.652,14.6805 L 230.588,14.7008 L 230.533,14.7178 L 230.459,14.7404 L 230.397,14.7588 L 230.333,14.7779
 L 230.275,14.7948 L 230.202,14.8155 L 230.136,14.8341 L 230.076,14.8508 L 230.003,14.8705 L 229.945,14.886
 L 229.875,14.9046 L 229.814,14.9201 L 229.743,14.9381 L 229.684,14.9528 L 229.617,14.9693 L 229.551,14.9849
 L 229.498,14.9974 L 229.429,15.0134 L 229.358,15.0295 L 229.289,15.0446 L 229.22,15.0596 L 229.16,15.0723
 L 229.093,15.0861 L 229.025,15.1 L 228.961,15.1127 L 228.896,15.1253 L 228.83,15.1378 L 228.77,15.1488
 L 228.706,15.1604 L 228.628,15.174 L 228.575,15.1831 L 228.496,15.1964 L 228.431,15.2068 L 228.364,15.2174
 L 228.298,15.2276 L 228.241,15.236 L 228.169,15.2464 L 228.098,15.2564 L 228.031,15.2655 L 227.967,15.2738
 L 227.907,15.2814 L 227.83,15.2909 L 227.768,15.2982 L 227.701,15.3058 L 227.639,15.3126 L 227.565,15.3203
 L 227.497,15.3271 L 227.431,15.3333 L 227.364,15.3394 L 227.308,15.3443 L 227.231,15.3507 L 227.161,15.3561
 L 227.098,15.3608 L 227.038,15.365 L 226.96,15.37 L 226.899,15.3737 L 226.837,15.3772 L 226.759,15.3812
 L 226.695,15.3843 L 226.641,15.3867 L 226.558,15.3899 L 226.495,15.392 L 226.423,15.3942 L 226.36,15.3958
 L 226.293,15.3972 L 226.224,15.3983 L 226.206,15.3986 L 226.218,15.406 L 226.271,15.4381 L 226.328,15.4718
 L 226.381,15.5025 L 226.456,15.5452 L 226.534,15.5905 L 226.574,15.6144 L 226.659,15.6677 L 226.698,15.6928
 L 226.778,15.7466 L 226.816,15.7736 L 226.895,15.8301 L 226.932,15.8579 L 227.011,15.9186 L 227.048,15.9482
 L 227.123,16.0101 L 227.159,16.0411 L 227.228,16.1019 L 227.262,16.1331 L 227.336,16.2026 L 227.368,16.2345
 L 227.436,16.3028 L 227.469,16.3366 L 227.535,16.4076 L 227.567,16.443 L 227.63,16.5153 L 227.661,16.5521
 L 227.722,16.6267 L 227.752,16.6646 L 227.809,16.7397 L 227.837,16.7772 L 227.894,16.858 L 227.92,16.896
 L 227.974,16.9776 L 228,17.0173 L 228.051,17.1005 L 228.075,17.14 L 228.124,17.2254 L 228.146,17.2669
 L 228.191,17.3507 L 228.212,17.3927 L 228.255,17.4805 L 228.275,17.5222 L 228.315,17.6119 L 228.333,17.6547
 L 228.37,17.744 L 228.387,17.7871 L 228.421,17.8782 L 228.437,17.9232 L 228.468,18.0159 L 228.482,18.0595
 L 228.51,18.1527 L 228.522,18.1968 L 228.547,18.292 L 228.559,18.3376 L 228.581,18.4326 L 228.59,18.479
 L 228.608,18.5711 L 228.617,18.6169 L 228.633,18.7162 L 228.639,18.7631 L 228.652,18.8566 L 228.657,18.9028
 L 228.666,19.0013 L 228.67,19.0486 L 228.676,19.1435 L 228.678,19.1891 L 228.681,19.2887 L 228.681,19.3367
 L 228.681,19.4341 L 228.68,19.4801 L 228.677,19.5758 L 228.674,19.6234 L 228.668,19.7201 L 228.664,19.7667
 L 228.654,19.8638 L 228.648,19.9094 L 228.635,20.006 L 228.628,20.0524 L 228.612,20.1512 L 228.603,20.1961
 L 228.584,20.2898 L 228.574,20.3354 L 228.552,20.4302 L 228.541,20.4742 L 228.514,20.5718 L 228.501,20.6163
 L 228.473,20.7071 L 228.459,20.7511 L 228.428,20.8421 L 228.412,20.8856 L 228.377,20.9791 L 228.36,21.0208
 L 228.321,21.1146 L 228.302,21.1566 L 228.263,21.2424 L 228.243,21.2852 L 228.2,21.3718 L 228.179,21.4129
 L 228.133,21.4984 L 228.11,21.5384 L 228.06,21.6251 L 228.036,21.6652 L 227.984,21.7475 L 227.959,21.7863
 L 227.905,21.8662 L 227.878,21.9048 L 227.82,21.9853 L 227.791,22.024 L 227.732,22.1005 L 227.715,22.1217
 L 223.986,26.7603 L 223.969,26.7804 L 223.911,26.8506 L 223.881,26.8859 L 223.817,26.9576 L 223.786,26.9918
 L 223.718,27.0635 L 223.685,27.0971 L 223.616,27.1645 L 223.583,27.1968 L 223.51,27.2635 L 223.476,27.2943
 L 223.404,27.3565 L 223.369,27.3862 L 223.292,27.4488 L 223.256,27.4765 L 223.176,27.5377 L 223.138,27.5653
 L 223.061,27.6198 L 223.021,27.6468 L 222.94,27.7004 L 222.9,27.7257 L 222.82,27.7748 L 222.779,27.7989
 L 222.692,27.8485 L 222.652,27.8707 L 222.566,27.9158 L 222.524,27.937 L 222.438,27.9789 L 222.395,27.9987
 L 222.304,28.0395 L 222.261,28.0577 L 222.173,28.0932 L 222.129,28.1105 L 222.037,28.1446 L 221.993,28.1599
 L 221.903,28.1898 L 221.858,28.2041 L 221.761,28.2326 L 221.717,28.245 L 221.623,28.2695 L 221.577,28.2806
 L 221.484,28.3017 L 221.439,28.3112 L 221.344,28.3294 L 221.298,28.3375 L 221.201,28.3529 L 221.156,28.3594
 L 221.057,28.3717 L 221.01,28.3768 L 220.915,28.3856 L 220.868,28.3892 L 220.768,28.3951 L 220.714,28.3972
 L 220.599,28.3997 L 220.569,28.4 L 92.4767,28.4 L 92.4214,28.3995 L 92.3759,28.3987 L 92.2794,28.3955
 L 92.2323,28.3932 L 92.1374,28.387 L 92.0912,28.3832 L 91.9931,28.3736 L 91.9468,28.3682 L 91.8515,28.3557
 L 91.8057,28.349 L 91.7097,28.3331 L 91.665,28.3251 L 91.5662,28.3054 L 91.5215,28.2958 L 91.4253,28.2733
 L 91.3806,28.2621 L 91.286,28.2368 L 91.2419,28.2242 L 91.149,28.196 L 91.1047,28.1818 L 91.0134,28.1508
 L 90.9695,28.1351 L 90.8776,28.1006 L 90.8346,28.0836 L 90.743,28.0456 L 90.6987,28.0264 L 90.5964,27.9798
 L 90.5551,27.9601 L 90.5229,27.9445 L 90.4901,27.9283 L 78.0099,21.6882 L 77.988,21.677 L 77.9114,21.6372
 L 77.8694,21.6144 L 77.7852,21.567 L 77.7447,21.5433 L 77.6619,21.4931 L 77.6223,21.4681 L 77.5397,21.4142
 L 77.5005,21.3877 L 77.4238,21.3339 L 77.3853,21.3061 L 77.3076,21.2478 L 77.2715,21.2198 L 77.1922,21.1563
 L 77.1564,21.1264 L 77.0837,21.0641 L 77.049,21.0332 L 76.9772,20.9675 L 76.9433,20.9354 L 76.8742,20.8677
 L 76.8409,20.8341 L 76.7736,20.7637 L 76.7423,20.73 L 76.6772,20.6573 L 76.6469,20.6224 L 76.5848,20.5484
 L 76.5549,20.5116 L 76.4941,20.4341 L 76.4653,20.3962 L 76.409,20.3193 L 76.3817,20.2807 L 76.3273,20.2013
 L 76.3019,20.1628 L 76.2496,20.0807 L 76.2243,20.0396 L 76.1747,19.9557 L 76.1516,19.9153 L 76.1051,19.8304
 L 76.0838,19.7902 L 76.0395,19.7028 L 76.0193,19.6612 L 75.9771,19.5707 L 75.9588,19.5296 L 75.9208,19.4407
 L 75.9031,19.3974 L 75.8679,19.3067 L 75.852,19.264 L 75.8183,19.1682 L 75.8036,19.1238 L 75.7747,19.0322
 L 75.7616,18.9881 L 75.7358,18.8958 L 75.7241,18.8512 L 75.7006,18.7554 L 75.6903,18.7099 L 75.6705,18.6155
 L 75.6615,18.5697 L 75.6442,18.4714 L 75.637,18.4256 L 75.6236,18.3317 L 75.6177,18.2855 L 75.6067,18.1854
 L 75.6025,18.1389 L 75.5953,18.0452 L 75.5924,17.9966 L 75.5882,17.9009 L 75.5869,17.8544 L 75.5858,17.7565
 L 75.5861,17.7089 L 75.5882,17.6111 L 75.59,17.5653 L 75.5953,17.4684 L 75.5986,17.4217 L 75.6071,17.3243
 L 75.6119,17.2784 L 75.6235,17.1822 L 75.6299,17.1355 L 75.6448,17.0388 L 75.6529,16.9918 L 75.6706,16.8973
 L 75.6801,16.8511 L 75.7007,16.7583 L 75.7117,16.7121 L 75.7359,16.6177 L 75.7484,16.572 L 75.7752,16.4801
 L 75.7892,16.4347 L 75.8197,16.3416 L 75.8348,16.2979 L 75.8678,16.2072 L 75.8846,16.1632 L 75.9213,16.0718
 L 75.9398,16.0278 L 75.9781,15.9408 L 75.9977,15.8982 L 76.0402,15.8096 L 76.0614,15.7673 L 76.1055,15.6826
 L 76.1283,15.6404 L 76.1757,15.5563 L 76.1994,15.5157 L 76.2496,15.4329 L 76.2719,15.3975 L 76.2326,15.3982
 L 76.1681,15.399 L 76.1004,15.3996 L 76.0397,15.3999 L 75.967,15.3999 L 75.9072,15.3997 L 75.8353,15.3991
 L 75.7633,15.3982 L 75.704,15.3971 L 75.6279,15.3955 L 75.5638,15.3938 L 75.494,15.3916 L 75.4308,15.3895
 L 75.3569,15.3865 L 75.2928,15.3837 L 75.2284,15.3806 L 75.1606,15.3771 L 75.0986,15.3736 L 75.0285,15.3693
 L 74.958,15.3647 L 74.889,15.3599 L 74.8366,15.356 L 74.7546,15.3495 L 74.6875,15.344 L 74.6249,15.3385
 L 74.5536,15.3319 L 74.4934,15.3261 L 74.4219,15.3189 L 74.3579,15.3122 L 74.287,15.3044 L 74.2205,15.2968
 L 74.1655,15.2903 L 74.0895,15.281 L 74.0197,15.2721 L 73.9576,15.2639 L 73.8893,15.2546 L 73.8197,15.2449
 L 73.7568,15.2357 L 73.6901,15.2258 L 73.6262,15.2159 L 73.5554,15.2047 L 73.4999,15.1957 L 73.423,15.1829
 L 73.3674,15.1733 L 73.2921,15.16 L 73.2259,15.1481 L 73.1613,15.1361 L 73.1,15.1245 L 73.0277,15.1104
 L 72.9661,15.0982 L 72.9031,15.0854 L 72.8272,15.0696 L 72.7682,15.0571 L 72.6974,15.0417 L 72.6326,15.0273
 L 72.5683,15.0128 L 72.4988,14.9967 L 72.4395,14.9827 L 72.3693,14.9659 L 72.305,14.9501 L 72.2425,14.9345
 L 72.1728,14.9168 L 72.1133,14.9014 L 72.0419,14.8827 L 71.9829,14.8668 L 71.9145,14.8481 L 71.8541,14.8314
 L 71.7953,14.8149 L 71.7214,14.7937 L 71.658,14.7752 L 71.6014,14.7584 L 71.529,14.7366 L 71.465,14.7171
 L 71.3996,14.6968 L 71.3368,14.677 L 71.2743,14.657 L 71.206,14.6348 L 71.1466,14.6152 L 71.0787,14.5925
 L 71.0206,14.5727 L 70.9612,14.5523 L 70.8913,14.5279 L 70.8267,14.505 L 70.762,14.4818 L 70.7014,14.4597
 L 70.637,14.436 L 70.576,14.4132 L 70.5084,14.3876 L 70.4505,14.3653 L 70.3948,14.3437 L 70.3217,14.3149
 L 70.2617,14.291 L 70.1999,14.266 L 70.136,14.2398 L 70.0768,14.2153 L 70.0119,14.1881 L 69.9609,14.1665
 L 69.8893,14.1357 L 69.8262,14.1083 L 69.7657,14.0817 L 69.7079,14.0559 L 69.6543,14.0318 L 69.5807,13.9983
 L 69.5219,13.9712 L 69.4616,13.9431 L 69.399,13.9135 L 69.3378,13.8843 L 69.2787,13.8558 L 69.2169,13.8257
 L 69.1574,13.7963 L 69.097,13.7662 L 69.0371,13.736 L 68.9776,13.7057 L 68.9209,13.6765 L 68.8562,13.6428
 L 68.7996,13.613 L 68.7374,13.5799 L 68.6804,13.5493 L 68.6187,13.5158 L 68.573,13.4907 L 68.5032,13.452
 L 68.4463,13.4202 L 68.3872,13.3867 L 68.3369,13.358 L 68.2692,13.319 L 68.212,13.2856 L 68.153,13.2508
 L 68.0984,13.2183 L 68.0485,13.1884 L 67.9785,13.1459 L 67.9245,13.1128 L 67.8663,13.0768 L 67.8217,13.0489
 L 67.7592,13.0095 L 67.6955,12.969 L 67.64,12.9333 L 67.5829,12.8962 L 67.529,12.8609 L 67.4697,12.8217
 L 67.4188,12.7876 L 67.3607,12.7485 L 67.3106,12.7143 L 67.2468,12.6705 L 67.201,12.6387 L 67.1402,12.5961
 L 67.0837,12.5562 L 67.0364,12.5225 L 66.974,12.4776 L 66.9198,12.4382 L 66.8666,12.3992 L 66.813,12.3596
 L 66.7671,12.3253 L 66.7045,12.2781 L 66.6525,12.2386 L 66.598,12.1968 L 66.5417,12.1532 L 66.4907,12.1134
 L 66.4406,12.0738 L 66.3932,12.0361 L 66.3336,11.9883 L 66.2828,11.9472 L 66.2279,11.9023 L 66.1768,11.8602
 L 66.1236,11.8159 L 66.0761,11.7761 L 66.0236,11.7316 L 65.972,11.6875 L 65.9231,11.6454 L 65.8714,11.6005
 L 65.8162,11.552 L 65.7728,11.5137 L 65.7173,11.4642 L 65.6695,11.4211 L 65.6278,11.3832 L 65.5708,11.331
 L 65.521,11.285 L 65.4725,11.2397 L 65.4228,11.193 L 65.3753,11.1478 L 65.327,11.1016 L 65.2789,11.0552
 L 65.2269,11.0046 L 65.1898,10.9681 L 65.1361,10.9149 L 65.0844,10.8632 L 65.0396,10.8181 L 64.9919,10.7694
 L 64.9447,10.721 L 64.9044,10.6793 L 64.8511,10.6236 L 64.8065,10.5767 L 64.7666,10.5343 L 64.7143,10.4782
 L 64.6679,10.4281 L 64.6294,10.386 L 64.5765,10.3278 L 64.5408,10.2882 L 64.4868,10.2276 L 64.4493,10.1854
 L 64.3998,10.129 L 64.3553,10.0778 L 64.3102,10.0254 L 64.2681,9.97606 L 64.2248,9.92488 L 64.1789,9.87024
 L 64.1385,9.82164 L 64.1002,9.77515 L 64.0585,9.72414 L 64.0098,9.66403 L 63.9686,9.61276 L 63.934,9.56937
 L 63.8832,9.50491 L 63.8455,9.45665 L 63.801,9.39919 L 63.7622,9.34853 L 63.7257,9.30057 L 63.679,9.23865
 L 63.6392,9.18532 L 63.6022,9.13528 L 63.5603,9.07817 L 63.5198,9.02238 L 63.4799,8.96701 L 63.4434,8.91582
 L 63.408,8.86578 L 63.366,8.80582 L 63.3266,8.74896 L 63.295,8.70308 L 63.2521,8.64008 L 63.2125,8.58138
 L 63.1809,8.5341 L 63.1385,8.47 L 63.1017,8.41382 L 63.074,8.37123 L 63.0277,8.29935 L 62.9929,8.24475
 L 62.9607,8.19374 L 62.9215,8.13098 L 62.8869,8.07507 L 62.8506,8.01591 L 62.8159,7.95857 L 62.7867,7.91013
 L 62.7478,7.84473 L 62.7121,7.78401 L 62.6798,7.72867 L 62.6465,7.67099 L 62.6165,7.61859 L 62.5796,7.5533
 L 62.5468,7.49464 L 62.5152,7.4377 L 62.4807,7.37483 L 62.4494,7.31725 L 62.4178,7.25839 L 62.3864,7.1992
 L 62.3547,7.1391 L 62.3296,7.09091 L 62.2917,7.01723 L 62.2641,6.96313 L 62.2335,6.90233 L 62.2056,6.84644
 L 62.1737,6.78181 L 62.1473,6.72775 L 62.1144,6.65958 L 62.0853,6.59859 L 62.0573,6.53905 L 62.028,6.47638
 L 61.9987,6.41284 L 61.9724,6.35501 L 61.9441,6.29211 L 61.9166,6.23032 L 61.8905,6.17116 L 61.8632,6.10811
 L 61.8366,6.04617 L 61.8098,5.98302 L 61.7851,5.92429 L 61.759,5.86113 L 61.7332,5.79823 L 61.7126,5.74707
 L 61.685,5.67809 L 61.6586,5.61093 L 61.6348,5.54988 L 61.6108,5.48732 L 61.5871,5.42479 L 61.5644,5.36401
 L 61.5432,5.30656 L 61.5168,5.23419 L 61.4949,5.17307 L 61.4711,5.10585 L 61.4499,5.04517 L 61.4292,4.98511
 L 61.407,4.91982 L 61.3874,4.86115 L 61.3642,4.79088 L 61.3428,4.72519 L 61.3257,4.67159 L 61.3017,4.59558
 L 61.2839,4.53825 L 61.2629,4.46959 L 61.2457,4.41235 L 61.2253,4.34366 L 61.2062,4.27814 L 61.1864,4.20924
 L 61.1688,4.14688 L 61.1507,4.08142 L 61.1361,4.0278 L 61.1167,3.95547 L 61.0983,3.8857 L 61.0817,3.82175
 L 61.0651,3.75603 L 61.0488,3.69058 L 61.0333,3.62752 L 61.0177,3.56216 L 61.0051,3.50888 L 60.9874,3.43217
 L 60.9722,3.36543 L 60.957,3.29675 L 60.9436,3.2348 L 60.9312,3.17661 L 60.9157,3.10222 L 60.902,3.03484
 L 60.8898,2.9734 L 60.8763,2.90381 L 60.8634,2.83611 L 60.8514,2.77124 L 60.8396,2.70595 L 60.8285,2.6429
 L 60.8166,2.57402 L 60.8055,2.50716 L 60.7962,2.45033 L 60.7846,2.37718 L 60.7755,2.31837 L 60.7642,2.2426
 L 60.7559,2.18608 L 60.7449,2.10748 L 60.7361,2.04269 L 60.7275,1.97736 L 60.7192,1.91232 L 60.7101,1.83841
 L 60.7031,1.77858 L 60.6949,1.70708 L 60.6877,1.64162 L 60.6816,1.58344 L 60.674,1.50748 L 60.6675,1.44012
 L 60.6615,1.37518 L 60.6558,1.3092 L 60.6501,1.24107 L 60.6448,1.17384 L 60.64,1.10895 L 60.6357,1.04861
 L 60.6309,0.974518 L 60.6272,0.915756 L 60.6228,0.837585 L 60.6192,0.768982 L 60.6161,0.703903 L 60.6131,0.636246
 L 60.6106,0.570175 L 60.6081,0.500244 L 60.6064,0.444641 L 60.6044,0.369019 L 60.603,0.304016 L 60.6017,0.231506
 L 60.6009,0.168076 L 60.6003,0.0988922 L 60.6001,0.0404205 L 60.6001,-0.0350342 L 60.6003,-0.0927429 L 60.6009,-0.162537
 L 60.6018,-0.235168 L 60.6028,-0.295517 L 60.6045,-0.371246 L 60.6062,-0.434631 L 60.6083,-0.505646 L 60.6105,-0.569321
 L 60.6134,-0.643051 L 60.6163,-0.707184 L 60.6193,-0.77092 L 60.6229,-0.839203 L 60.6263,-0.899979 L 60.6307,-0.971481
 L 60.6351,-1.03967 L 60.6394,-1.10101 L 60.6447,-1.17229 L 60.6503,-1.24353 L 60.6557,-1.30806 L 60.6608,-1.36746
 L 60.6678,-1.44339 L 60.6738,-1.50621 L 60.68,-1.56738 L 60.6877,-1.64116 L 60.6956,-1.71291 L 60.703,-1.77846
 L 60.7096,-1.83414 L 60.7187,-1.90865 L 60.7277,-1.97899 L 60.7358,-2.04051 L 60.744,-2.10114 L 60.7545,-2.17592
 L 60.7642,-2.24315 L 60.7741,-2.30942 L 60.7841,-2.37379 L 60.795,-2.44328 L 60.804,-2.49826 L 60.8171,-2.57709
 L 60.8264,-2.63107 L 60.8398,-2.70735 L 60.8499,-2.76332 L 60.8638,-2.8381 L 60.8769,-2.90698 L 60.8893,-2.97113
 L 60.9018,-3.03377 L 60.9146,-3.09677 L 60.9298,-3.17014 L 60.9425,-3.2299 L 60.9583,-3.30266 L 60.9725,-3.36642
 L 60.9872,-3.43166 L 61.0032,-3.50102 L 61.0173,-3.56046 L 61.0336,-3.62834 L 61.0497,-3.69438 L 61.0645,-3.75378
 L 61.0833,-3.82773 L 61.0982,-3.88538 L 61.1149,-3.94873 L 61.133,-4.01654 L 61.1517,-4.08507 L 61.163,-4.12566
 L 61.0733,-4.14397 L 61.0274,-4.15408 L 60.931,-4.17708 L 60.8862,-4.18858 L 60.7928,-4.2141 L 60.747,-4.22746
 L 60.6549,-4.25587 L 60.6112,-4.27017 L 60.5187,-4.30211 L 60.4752,-4.31789 L 60.3864,-4.35184 L 60.3427,-4.36925
 L 60.2497,-4.40833 L 60.2082,-4.42659 L 60.1193,-4.46741 L 60.0779,-4.48729 L 59.9889,-4.53174 L 59.9486,-4.55273
 L 59.8641,-4.59845 L 59.8237,-4.62117 L 59.737,-4.67175 L 59.6975,-4.69583 L 59.617,-4.7464 L 59.5769,-4.77255
 L 59.4975,-4.82628 L 59.4597,-4.85262 L 59.3803,-4.91011 L 59.3436,-4.93758 L 59.2654,-4.99823 L 59.2293,-5.02718
 L 59.1552,-5.08864 L 59.1197,-5.119 L 59.0454,-5.1848 L 59.0113,-5.21609 L 58.9419,-5.28168 L 58.9088,-5.31404
 L 58.837,-5.38651 L 58.805,-5.4201 L 58.7418,-5.48824 L 58.7109,-5.52258 L 58.6455,-5.5979 L 58.6152,-5.63405
 L 58.5547,-5.70854 L 58.5253,-5.74591 L 58.4659,-5.82413 L 58.4383,-5.86185 L 58.3832,-5.9395 L 58.3564,-5.97858
 L 58.3028,-6.05971 L 58.2772,-6.09984 L 58.2272,-6.18124 L 58.2029,-6.22224 L 58.1546,-6.30681 L 58.1318,-6.34842
 L 58.0878,-6.43167 L 58.0668,-6.47285 L 58.0225,-6.56392 L 58.0027,-6.60641 L 57.9643,-6.69235 L 57.9456,-6.73587
 L 57.908,-6.82793 L 57.891,-6.87183 L 57.8582,-6.96014 L 57.8426,-7.00427 L 57.8115,-7.09743 L 57.7973,-7.14238
 L 57.7696,-7.23544 L 57.7571,-7.28001 L 57.7315,-7.37746 L 57.7207,-7.42197 L 57.6996,-7.5146 L 57.69,-7.55991
 L 57.6712,-7.65703 L 57.663,-7.70329 L 57.6482,-7.79617 L 57.6413,-7.84341 L 57.629,-7.94139 L 57.6238,-7.98851
 L 57.6149,-8.0834 L 57.6112,-8.13188 L 57.6053,-8.22879 L 57.603,-8.28403 L 57.6003,-8.40327 L 57.6,-8.43353
 L 57.6,-25.0059 L 53.0059,-29.6 L 52.5678,-29.6 L 52.5151,-29.6004 L 52.4832,-29.601 L 52.4597,-29.6016
 L 52.3725,-29.6044 L 52.3249,-29.6067 L 52.2283,-29.6131 L 52.1822,-29.6168 L 52.0842,-29.6264 L 52.0378,-29.6318
 L 51.9426,-29.6443 L 51.8969,-29.651 L 51.798,-29.6674 L 51.7508,-29.676 L 51.6586,-29.6943 L 51.612,-29.7044
 L 51.5202,-29.7258 L 51.4753,-29.7369 L 51.378,-29.763 L 51.3334,-29.7757 L 51.2405,-29.8039 L 51.1956,-29.8183
 L 51.1044,-29.8492 L 51.0605,-29.8649 L 50.9678,-29.8998 L 50.9253,-29.9166 L 50.8345,-29.9542 L 50.7922,-29.9726
 L 50.7039,-30.0126 L 50.6623,-30.0322 L 50.5749,-30.0753 L 50.5341,-30.0962 L 50.4471,-30.1427 L 50.4069,-30.165
 L 50.3211,-30.2146 L 50.2811,-30.2386 L 50.201,-30.2884 L 50.1622,-30.3133 L 50.0774,-30.3699 L 50.039,-30.3966
 L 49.9621,-30.4517 L 49.925,-30.4791 L 49.8465,-30.5394 L 49.8104,-30.568 L 49.7369,-30.6284 L 49.7018,-30.658
 L 49.6258,-30.7246 L 49.5918,-30.7555 L 49.5203,-30.8224 L 49.4876,-30.854 L 49.4177,-30.924 L 49.3858,-30.9569
 L 49.3196,-31.0276 L 49.2889,-31.0614 L 49.2249,-31.1344 L 49.1944,-31.1703 L 49.1332,-31.2448 L 49.1037,-31.2819
 L 49.0443,-31.3592 L 49.0167,-31.3964 L 48.9584,-31.4778 L 48.9321,-31.5159 L 48.8782,-31.5964 L 48.8534,-31.6349
 L 48.8024,-31.7169 L 48.7779,-31.7578 L 48.73,-31.8407 L 48.707,-31.8819 L 48.6598,-31.9703 L 48.6383,-32.0122
 L 48.5963,-32.0974 L 48.5765,-32.1392 L 48.5364,-32.2276 L 48.5178,-32.2706 L 48.4795,-32.3631 L 48.4612,-32.4094
 L 48.4253,-32.5056 L 48.4163,-32.5305 L 48.4036,-32.5665 L 48.3818,-32.6303 L 21.7889,-113.042 L 21.7733,-113.091
 L 21.7648,-113.118 L 21.7577,-113.141 L 21.7326,-113.226 L 21.7204,-113.27 L 21.6954,-113.366 L 21.6843,-113.411
 L 21.6635,-113.503 L 21.654,-113.549 L 21.6346,-113.65 L 21.6259,-113.701 L 21.6093,-113.808 L 21.6054,-113.835
 L 21.6005,-113.872 L 21.598,-113.891 L 21.5902,-113.955 L 17.8519,-147.6 L 2.39999,-147.6 L 2.39999,41.6
 z
" stroke="black" fill="lightgray" stroke-width="0.5"/>
</svg>
